HIERARCHY
ROOT hip
{
  OFFSET 0 0 0
  CHANNELS 6 Xposition Yposition Zposition Zrotation Yrotation Xrotation
  JOINT abdomen
  {
    OFFSET 0 20.6881 -0.73152
    CHANNELS 3 Zrotation Xrotation Yrotation
    JOINT chest
    {
      OFFSET 0 11.7043 -0.48768
      CHANNELS 3 Zrotation Xrotation Yrotation
      JOINT neck
      {
        OFFSET 0 22.1894 -2.19456
        CHANNELS 3 Zrotation Xrotation Yrotation
        JOINT head
        {
          OFFSET -0.24384 7.07133 1.2192
          CHANNELS 3 Zrotation Xrotation Yrotation
          JOINT leftEye
          {
            OFFSET 4.14528 8.04674 8.04672
            CHANNELS 3 Zrotation Xrotation Yrotation
            End Site
            {
              OFFSET 1 0 0
            }
          }
          JOINT rightEye
          {
            OFFSET -3.6576 8.04674 8.04672
            CHANNELS 3 Zrotation Xrotation Yrotation
            End Site
            {
              OFFSET 1 0 0
            }
          }
        }
      }
      JOINT rCollar
      {
        OFFSET -2.68224 19.2634 -4.8768
        CHANNELS 3 Zrotation Xrotation Yrotation
        JOINT rShldr
        {
          OFFSET -8.77824 -1.95073 1.46304
          CHANNELS 3 Zrotation Xrotation Yrotation
          JOINT rForeArm
          {
            OFFSET -28.1742 -1.7115 0.48768
            CHANNELS 3 Zrotation Xrotation Yrotation
            JOINT rHand
            {
              OFFSET -22.5879 0.773209 7.07136
              CHANNELS 3 Zrotation Xrotation Yrotation
              JOINT rThumb1
              {
                OFFSET -1.2192 -0.487915 3.41376
                CHANNELS 3 Zrotation Xrotation Yrotation
                JOINT rThumb2
                {
                  OFFSET -3.37035 -0.52449 3.41376
                  CHANNELS 3 Zrotation Xrotation Yrotation
                  End Site
                  {
                    OFFSET -1.78271 -1.18214 1.43049
                  }
                }
              }
              JOINT rIndex1
              {
                OFFSET -7.75947 0.938293 5.60832
                CHANNELS 3 Zrotation Xrotation Yrotation
                JOINT rIndex2
                {
                  OFFSET -2.54057 -0.884171 1.56538
                  CHANNELS 3 Zrotation Xrotation Yrotation
                  End Site
                  {
                    OFFSET -1.62519 -0.234802 1.16502
                  }
                }
              }
              JOINT rMid1
              {
                OFFSET -8.24714 1.18213 3.41376
                CHANNELS 3 Zrotation Xrotation Yrotation
                JOINT rMid2
                {
                  OFFSET -3.10165 -0.590103 1.0647
                  CHANNELS 3 Zrotation Xrotation Yrotation
                  End Site
                  {
                    OFFSET -2.48547 -0.328903 0.83742
                  }
                }
              }
              JOINT rRing1
              {
                OFFSET -8.82822 0.546677 1.51678
                CHANNELS 3 Zrotation Xrotation Yrotation
                JOINT rRing2
                {
                  OFFSET -2.60934 -0.819778 -0.0198488
                  CHANNELS 3 Zrotation Xrotation Yrotation
                  End Site
                  {
                    OFFSET -2.33842 -0.294052 0.168128
                  }
                }
              }
              JOINT rPinky1
              {
                OFFSET -8.27202 -0.0477905 -0.4584
                CHANNELS 3 Zrotation Xrotation Yrotation
                JOINT rPinky2
                {
                  OFFSET -1.82734 -0.647385 -0.700984
                  CHANNELS 3 Zrotation Xrotation Yrotation
                  End Site
                  {
                    OFFSET -1.69225 -0.51767 -0.607171
                  }
                }
              }
            }
          }
        }
      }
      JOINT lCollar
      {
        OFFSET 2.68224 19.2634 -4.8768
        CHANNELS 3 Zrotation Xrotation Yrotation
        JOINT lShldr
        {
          OFFSET 8.77824 -1.95073 1.46304
          CHANNELS 3 Zrotation Xrotation Yrotation
          JOINT lForeArm
          {
            OFFSET 28.1742 -1.7115 0.48768
            CHANNELS 3 Zrotation Xrotation Yrotation
            JOINT lHand
            {
              OFFSET 22.5879 0.773209 7.07136
              CHANNELS 3 Zrotation Xrotation Yrotation
              JOINT lThumb1
              {
                OFFSET 1.2192 -0.487915 3.41376
                CHANNELS 3 Zrotation Xrotation Yrotation
                JOINT lThumb2
                {
                  OFFSET 3.37035 -0.52449 3.41376
                  CHANNELS 3 Zrotation Xrotation Yrotation
                  End Site
                  {
                    OFFSET 1.78271 -1.18214 1.43049
                  }
                }
              }
              JOINT lIndex1
              {
                OFFSET 7.75947 0.938293 5.60832
                CHANNELS 3 Zrotation Xrotation Yrotation
                JOINT lIndex2
                {
                  OFFSET 2.54057 -0.884171 1.56538
                  CHANNELS 3 Zrotation Xrotation Yrotation
                  End Site
                  {
                    OFFSET 1.62519 -0.234802 1.16502
                  }
                }
              }
              JOINT lMid1
              {
                OFFSET 8.24714 1.18213 3.41376
                CHANNELS 3 Zrotation Xrotation Yrotation
                JOINT lMid2
                {
                  OFFSET 3.10165 -0.590103 1.0647
                  CHANNELS 3 Zrotation Xrotation Yrotation
                  End Site
                  {
                    OFFSET 2.48547 -0.328903 0.83742
                  }
                }
              }
              JOINT lRing1
              {
                OFFSET 8.82822 0.546677 1.51678
                CHANNELS 3 Zrotation Xrotation Yrotation
                JOINT lRing2
                {
                  OFFSET 2.60934 -0.819778 -0.0198488
                  CHANNELS 3 Zrotation Xrotation Yrotation
                  End Site
                  {
                    OFFSET 2.33842 -0.294052 0.168128
                  }
                }
              }
              JOINT lPinky1
              {
                OFFSET 8.27202 -0.0477905 -0.4584
                CHANNELS 3 Zrotation Xrotation Yrotation
                JOINT lPinky2
                {
                  OFFSET 1.82734 -0.647385 -0.700984
                  CHANNELS 3 Zrotation Xrotation Yrotation
                  End Site
                  {
                    OFFSET 1.69225 -0.51767 -0.607171
                  }
                }
              }
            }
          }
        }
      }
    }
  }
  JOINT rButtock
  {
    OFFSET -8.77824 4.35084 1.2192
    CHANNELS 3 Zrotation Xrotation Yrotation
    JOINT rThigh
    {
      OFFSET 0 -1.70687 -2.19456
      CHANNELS 3 Zrotation Xrotation Yrotation
      JOINT rShin
      {
        OFFSET 0 -36.8199 0.73152
        CHANNELS 3 Zrotation Xrotation Yrotation
        JOINT rFoot
        {
          OFFSET 0.73152 -45.1104 -5.12064
          CHANNELS 3 Zrotation Xrotation Yrotation
          End Site
          {
            OFFSET -1.1221 -3.69964 12.103
          }
        }
      }
    }
  }
  JOINT lButtock
  {
    OFFSET 8.77824 4.35084 1.2192
    CHANNELS 3 Zrotation Xrotation Yrotation
    JOINT lThigh
    {
      OFFSET 0 -1.70687 -2.19456
      CHANNELS 3 Zrotation Xrotation Yrotation
      JOINT lShin
      {
        OFFSET 0 -36.8199 0.73152
        CHANNELS 3 Zrotation Xrotation Yrotation
        JOINT lFoot
        {
          OFFSET -0.73152 -45.1104 -5.12064
          CHANNELS 3 Zrotation Xrotation Yrotation
          End Site
          {
            OFFSET 1.1221 -3.69964 12.103
          }
        }
      }
    }
  }
}
MOTION
Frames:	4
Frame Time:	0.00833333
51.2562 85.5269 133.375 0.0 0.0 0.0 2.341 -0.00222401 0.0637211 0.646593 0.00595011 0.111938 9.25945e-14 -7.95139e-16 -1.31695e-15 2.77253e-13 -1.27222e-14 -3.67596e-15 -0.0 0.0 0.0 -0.0 0.0 0.0 4.67635e-14 -1.421e-16 -4.47265e-16 9.76349e-13 -3.0998e-15 -9.34288e-15 1.68003e-11 -5.10559e-12 -4.07111e-13 1.91946e-10 4.46828e-12 -2.27728e-12 4.52823e-10 -1.38312e-12 -5.84904e-12 7.82002e-10 -2.39178e-12 -1.01189e-11 4.52831e-10 -1.38116e-12 -5.84586e-12 7.73091 5.47488 0.417314 4.52824e-10 -1.38294e-12 -5.84586e-12 2.90554 0.965183 0.102902 4.52833e-10 -1.38285e-12 -5.84665e-12 10.2786 0.731801 0.0259123 4.52815e-10 -1.38354e-12 -5.83632e-12 2.22167 -0.733487 -0.20892 4.67677e-14 -1.36664e-16 -6.95746e-16 9.70728e-13 -3.32343e-15 -1.09332e-14 1.6755e-11 4.91734e-12 -4.07111e-13 1.91985e-10 -5.56331e-12 -2.25819e-12 4.52818e-10 -1.39689e-12 -5.85858e-12 7.82e-10 -2.41404e-12 -1.01173e-11 4.52807e-10 -1.39467e-12 -5.84268e-12 -7.73091 5.47488 -0.417314 4.52817e-10 -1.39716e-12 -5.85858e-12 -2.90554 0.965183 -0.102902 4.5281e-10 -1.39666e-12 -5.84984e-12 -10.2786 0.731801 -0.0259123 4.52822e-10 -1.39547e-12 -5.8554e-12 -2.22167 -0.733487 0.20892 -2.03217e-16 0.0 -3.88251e-19 2.21568 -8.02971 -0.231373 0.00607046 8.97364 0.15206 -0.477894 -0.951438 0.0348859 2.03217e-16 0.0 3.88251e-19 1.35226 -1.92788 -0.00536122 0.00846513 -2.07867 0.0694473 0.423658 3.99898 -0.12726
52.4371 84.8015 120.968 -178.092 0.4354 176.494 3.35755 1.41762 1.19726 0.266045 -2.42828 0.475838 -1.99443 2.37075 -0.847036 2.52126 -3.36216 -1.34999 -0.0 0.0 0.0 -0.0 0.0 0.0 4.34564e-14 -1.39875e-14 5.69914e-15 21.8405 11.8261 -2.34309 -5.12886 -2.54544 7.7636 0.0419372 4.54545 0.631582 -9.33358e-12 3.30808e-10 -1.05524e-10 -1.81816e-11 5.65514e-10 -1.77194e-10 -9.32743e-12 3.30809e-10 -1.05522e-10 7.73091 5.47488 0.417314 -9.33227e-12 3.30806e-10 -1.05519e-10 2.90554 0.965183 0.102902 -9.32487e-12 3.30808e-10 -1.05521e-10 10.2786 0.731801 0.0259123 -9.33999e-12 3.30807e-10 -1.05513e-10 2.22167 -0.733487 -0.20892 4.34363e-14 -1.39828e-14 5.40989e-15 -22.6624 8.1253 3.41295 5.80521 -3.0553 -8.56782 -0.0196084 3.10794 -0.434476 2.87763e-10 -1.67824e-10 -1.74381e-10 4.95432e-10 -2.91434e-10 -3.01536e-10 2.87754e-10 -1.6782e-10 -1.74365e-10 -7.73091 5.47488 -0.417314 2.87763e-10 -1.67823e-10 -1.7438e-10 -2.90554 0.965183 -0.102902 2.87754e-10 -1.67822e-10 -1.74375e-10 -10.2786 0.731801 -0.0259123 2.87765e-10 -1.67821e-10 -1.74382e-10 -2.22167 -0.733487 0.20892 -2.03217e-16 0.0 -3.88251e-19 4.06268 -8.10105 2.25754 0.037337 14.0609 0.247524 -1.41344 -4.36997 -7.24944 2.03217e-16 0.0 3.88251e-19 1.10336 -4.04073 -3.81924 -0.0241234 5.96775 -0.11531 0.987264 -0.940667 4.51753
52.424 84.7988 120.967 -178.069 0.2704 176.508 4.37227 2.918 2.39969 -0.103223 -5.00257 0.863438 -4.02758 4.87461 -1.74723 5.01613 -6.90341 -2.79317 -0.0 0.0 0.0 -0.0 0.0 0.0 4.11257e-14 -2.83401e-14 1.27874e-14 46.0746 24.2765 -5.17983 -9.81183 -5.0837 16.0254 -0.0239949 9.34319 1.31182 -5.15885e-10 6.94881e-10 -2.1701e-10 -8.95267e-10 1.18779e-09 -3.64094e-10 -5.1588e-10 6.94882e-10 -2.17009e-10 7.73091 5.47488 0.417314 -5.15883e-10 6.94878e-10 -2.17002e-10 2.90554 0.965183 0.102902 -5.15877e-10 6.94881e-10 -2.17007e-10 10.2786 0.731801 0.0259123 -5.15889e-10 6.9488e-10 -2.17001e-10 2.22167 -0.733487 -0.20892 4.10807e-14 -2.83362e-14 1.24551e-14 -47.7138 16.6185 7.2582 10.9566 -6.05465 -17.6978 0.0112455 6.4019 -0.899317 1.07632e-10 -3.52067e-10 -3.60864e-10 1.82674e-10 -6.11341e-10 -6.23977e-10 1.07624e-10 -3.5206e-10 -3.60848e-10 -7.73091 5.47488 -0.417314 1.07632e-10 -3.52064e-10 -3.6086e-10 -2.90554 0.965183 -0.102902 1.07621e-10 -3.52063e-10 -3.60861e-10 -10.2786 0.731801 -0.0259123 1.07631e-10 -3.52062e-10 -3.60868e-10 -2.22167 -0.733487 0.20892 -2.03217e-16 0.0 -3.88251e-19 6.02203 -8.15733 4.8907 0.0507383 19.4391 0.355464 -3.34473 -7.78477 -15.0465 2.03217e-16 0.0 3.88251e-19 0.533626 -6.2299 -7.87712 -0.000723864 14.4719 -0.319388 2.45301 -6.08644 9.47636
52.476 84.7955 120.984 -178.091 0.7817 176.544 5.22182 4.25046 3.4728 -0.401609 -7.29537 1.21217 -5.77169 7.106 -2.5586 7.08258 -10.0639 -4.10627 -0.0 0.0 0.0 -0.0 0.0 0.0 3.68424e-14 -4.16783e-14 1.7992e-14 68.9652 35.2132 -8.43109 -13.3673 -7.0767 23.4569 -0.182174 13.6296 1.94354 -9.33647e-10 9.95189e-10 -3.04874e-10 -1.61855e-09 1.70133e-09 -5.11344e-10 -9.33644e-10 9.9519e-10 -3.04875e-10 7.73091 5.47488 0.417314 -9.33645e-10 9.95185e-10 -3.04865e-10 2.90554 0.965183 0.102902 -9.33641e-10 9.95189e-10 -3.04871e-10 10.2786 0.731801 0.0259123 -9.33649e-10 9.95189e-10 -3.04867e-10 2.22167 -0.733487 -0.20892 3.67733e-14 -4.16751e-14 1.76212e-14 -71.1064 24.0133 11.108 14.7524 -8.34766 -25.9618 0.0841786 9.32167 -1.31893 -4.23465e-11 -5.00678e-10 -5.11427e-10 -7.77055e-11 -8.69475e-10 -8.84374e-10 -4.23523e-11 -5.00669e-10 -5.11411e-10 -7.73091 5.47488 -0.417314 -4.23454e-11 -5.00673e-10 -5.11422e-10 -2.90554 0.965183 -0.102902 -4.23582e-11 -5.00672e-10 -5.11427e-10 -10.2786 0.731801 -0.0259123 -4.23491e-11 -5.00672e-10 -5.11435e-10 -2.22167 -0.733487 0.20892 -2.03217e-16 0.0 -3.88251e-19 7.77451 -8.19729 7.23754 0.0438102 24.2351 0.46051 -5.85765 -10.4971 -22.1442 2.03217e-16 0.0 3.88251e-19 -0.239203 -8.12804 -11.5359 0.0754508 22.0598 -0.521002 4.52255 -10.5124 14.0451
